#tb 0: 1/60
#tb 1: 1/11111
0,          0,          0,        1,   192000, 0x00000000
1,          0,          0,      740,     1480, 0x00000000
0,          1,          1,        1,   192000, 0x01a6cf45
0,          2,          2,        1,   192000, 0xd07d57e9
0,          3,          3,        1,   192000, 0x3cb1dff5
1,        740,        740,      740,     1480, 0x20a92bd4
0,          4,          4,        1,   192000, 0xd1aaa8fb
0,          5,          5,        1,   192000, 0x75f526cd
0,          6,          6,        1,   192000, 0x0f673577
0,          7,          7,        1,   192000, 0x897b6781
1,       1480,       1480,      925,     1850, 0xa9e48a74
0,          8,          8,        1,   192000, 0x81e6b7f7
0,          9,          9,        1,   192000, 0x1f45ce61
0,         10,         10,        1,   192000, 0x5a0772a6
0,         11,         11,        1,   192000, 0xf78732b3
0,         12,         12,        1,   192000, 0x8427f9e5
1,       2405,       2405,      740,     1480, 0x23ecd018
0,         13,         13,        1,   192000, 0x40473f11
0,         14,         14,        1,   192000, 0x173ceebe
0,         15,         15,        1,   192000, 0x136b9516
0,         16,         16,        1,   192000, 0x138d11ae
1,       3145,       3145,      740,     1480, 0x206bb915
0,         17,         17,        1,   192000, 0x063dbff3
0,         18,         18,        1,   192000, 0x5280852f
0,         19,         19,        1,   192000, 0x99943a8f
0,         20,         20,        1,   192000, 0x0330a728
1,       3885,       3885,      925,     1850, 0xb0e10e75
0,         21,         21,        1,   192000, 0x5d35467d
0,         22,         22,        1,   192000, 0xfd436343
0,         23,         23,        1,   192000, 0xc323fcfe
0,         24,         24,        1,   192000, 0x2a1530a0
0,         25,         25,        1,   192000, 0xbd43bb60
1,       4810,       4810,      740,     1480, 0x8d9baedd
0,         26,         26,        1,   192000, 0xa47f5eab
0,         27,         27,        1,   192000, 0xff17f5f7
0,         28,         28,        1,   192000, 0xb4140b55
0,         29,         29,        1,   192000, 0xb8782cc4
1,       5550,       5550,      740,     1480, 0xb802aae1
0,         30,         30,        1,   192000, 0x92975b8b
0,         31,         31,        1,   192000, 0xf42a64d6
0,         32,         32,        1,   192000, 0x2cc7077d
0,         33,         33,        1,   192000, 0x00080cc8
1,       6290,       6290,      740,     1480, 0xecd7b5cc
0,         34,         34,        1,   192000, 0x584b48f3
0,         35,         35,        1,   192000, 0xd68f57da
0,         36,         36,        1,   192000, 0x60158422
0,         37,         37,        1,   192000, 0xd7fb89e6
1,       7030,       7030,      925,     1850, 0x16861355
0,         38,         38,        1,   192000, 0x97f1c76a
0,         39,         39,        1,   192000, 0x46c4bb9e
0,         40,         40,        1,   192000, 0xd32f9b66
0,         41,         41,        1,   192000, 0x74f43886
0,         42,         42,        1,   192000, 0x3c4e47df
1,       7955,       7955,      740,     1480, 0xa51690bd
0,         43,         43,        1,   192000, 0xb5ac0a58
0,         44,         44,        1,   192000, 0xcc572b31
0,         45,         45,        1,   192000, 0xb1739d26
0,         46,         46,        1,   192000, 0x73da5473
1,       8695,       8695,      740,     1480, 0xdd0b90d1
0,         47,         47,        1,   192000, 0x5f79f5bc
0,         48,         48,        1,   192000, 0x0affc0a0
0,         49,         49,        1,   192000, 0x2b4d5c1c
0,         50,         50,        1,   192000, 0x309b41bc
1,       9435,       9435,      925,     1850, 0x3ce6e333
0,         51,         51,        1,   192000, 0xd42b6424
0,         52,         52,        1,   192000, 0x4795c948
0,         53,         53,        1,   192000, 0xbc1a3a8b
0,         54,         54,        1,   192000, 0x16529c5b
0,         55,         55,        1,   192000, 0x6b1b31ba
1,      10360,      10360,      740,     1480, 0xf8ce8ea3
0,         56,         56,        1,   192000, 0x569182ce
0,         57,         57,        1,   192000, 0xe6ea9866
0,         58,         58,        1,   192000, 0x102c6076
0,         59,         59,        1,   192000, 0xb29f527a
1,      11100,      11100,      740,     1480, 0xda4597af
0,         60,         60,        1,   192000, 0x040b4eee
0,         61,         61,        1,   192000, 0x92574f4a
0,         62,         62,        1,   192000, 0x1e8acdce
0,         63,         63,        1,   192000, 0x1becf516
1,      11840,      11840,      740,     1480, 0x918f7cb3
0,         64,         64,        1,   192000, 0xb62e9776
0,         65,         65,        1,   192000, 0xed37a08e
0,         66,         66,        1,   192000, 0xc0719912
0,         67,         67,        1,   192000, 0x24cf7a7e
1,      12580,      12580,      925,     1850, 0xca6edb15
0,         68,         68,        1,   192000, 0x0307f62f
0,         69,         69,        1,   192000, 0x79b7417b
1,      13505,      13505,      740,     1480, 0xba279597
1,      14245,      14245,      740,     1480, 0xc5a38a9e
1,      14985,      14985,      925,     1850, 0x8147eef5
1,      15910,      15910,      740,     1480, 0xce2c7cb5
1,      16650,      16650,      740,     1480, 0x4282819f
1,      17390,      17390,      740,     1480, 0xbdbb8da6
1,      18130,      18130,      925,     1850, 0xdbbeea10
1,      19055,      19055,      740,     1480, 0xbe6a77c2
1,      19795,      19795,      740,     1480, 0xa85c75b2
1,      20535,      20535,      925,     1850, 0xa45bde21
1,      21460,      21460,      740,     1480, 0x84aa7895
1,      22200,      22200,      740,     1480, 0x147f7d9f
1,      22940,      22940,      740,     1480, 0xc8e77b85
1,      23680,      23680,      925,     1850, 0x10d4d81b
1,      24605,      24605,      740,     1480, 0xb4ae8bb1
1,      25345,      25345,      740,     1480, 0x3ef782a5
1,      26085,      26085,      925,     1850, 0xdeebda14
1,      27010,      27010,      740,     1480, 0x4c7e7bbb
1,      27750,      27750,      740,     1480, 0x0e0e9198
1,      28490,      28490,      740,     1480, 0x5c1f819f
1,      29230,      29230,      925,     1850, 0x0e4cf6ff
1,      30155,      30155,      740,     1480, 0x374388a7
1,      30895,      30895,      740,     1480, 0xed729389
1,      31635,      31635,      925,     1850, 0xe0f1e43f
1,      32560,      32560,      740,     1480, 0x3b27839a
1,      33300,      33300,      740,     1480, 0xe6287e94
1,      34040,      34040,      740,     1480, 0x7e0d84b5
1,      34780,      34780,      925,     1850, 0xf08bebf7
1,      35705,      35705,      740,     1480, 0x94cf73a0
1,      36445,      36445,      740,     1480, 0xfef384ae
1,      37185,      37185,      925,     1850, 0x3b93e0f7
1,      38110,      38110,      740,     1480, 0x28d27bae
1,      38850,      38850,      740,     1480, 0x94d57da5
1,      39590,      39590,      740,     1480, 0xc9327db5
1,      40330,      40330,      925,     1850, 0xe781f604
1,      41255,      41255,      740,     1480, 0x752f8c5b
1,      41995,      41995,      740,     1480, 0x30068032
1,      42735,      42735,      925,     1850, 0x7895023e
1,      43660,      43660,      740,     1480, 0xa1e0a6e1
1,      44400,      44400,      740,     1480, 0x6af4b500
1,      45140,      45140,      740,     1480, 0xc26ea4c7
1,      45880,      45880,      925,     1850, 0x16a72419
1,      46805,      46805,      740,     1480, 0x1794aacc
1,      47545,      47545,      740,     1480, 0x2ecad8d0
1,      48285,      48285,      925,     1850, 0x2e645e07
1,      49210,      49210,      740,     1480, 0x1c54dfe7
1,      49950,      49950,      740,     1480, 0xbd35feec
1,      50690,      50690,      740,     1480, 0x419403d6
1,      51430,      51430,      925,     1850, 0x78699d2a
1,      52355,      52355,      740,     1480, 0x74ec68e0
1,      53095,      53095,      740,     1480, 0x76af64d9
1,      53835,      53835,      925,     1850, 0x5a303d1a
1,      54760,      54760,      537,     1074, 0x142ce7ba
1,      55297,      55297,      925,     1850, 0x7ff682f7
